<svg width="222" height="45" viewBox="0 0 222 45" fill="none" xmlns="http://www.w3.org/2000/svg">
<path fill-rule="evenodd" clip-rule="evenodd" d="M57.2607 39.5619C57.2607 40.6844 58.0946 41.8069 59.6662 41.8069C60.7887 41.8069 61.6226 41.2296 62.0716 40.6202H62.1037L62.232 41.6145H63.5149C63.4508 41.0693 63.4187 40.3957 63.4187 39.7222V36.8036C63.4187 35.2 62.8093 33.5963 60.4039 33.5963C59.4417 33.5963 58.4795 33.8529 57.838 34.2699L58.1588 35.2C58.704 34.8472 59.4738 34.6227 60.2114 34.6227C61.815 34.6227 62.0075 35.8094 62.0075 36.4508V36.6432C58.9606 36.6112 57.2607 37.6375 57.2607 39.5619ZM58.704 39.3694C58.704 37.862 60.468 37.6054 62.0396 37.6054V38.9845C62.0396 39.1128 62.0075 39.2732 61.9754 39.4336C61.7188 40.1071 61.0774 40.7485 60.0511 40.7485C59.3134 40.7485 58.704 40.3316 58.704 39.3694ZM65.1506 37.7979C65.1506 40.1712 66.6259 41.8069 68.5182 41.8069C69.8011 41.8069 70.7633 41.1334 71.1802 40.2674H71.2444L71.3085 41.6145H72.5594C72.5273 41.0693 72.4952 40.2995 72.4952 39.5939V30.0684H71.084V34.783H71.052C70.6992 34.1416 69.8653 33.5963 68.6786 33.5963C66.7542 33.5963 65.1506 35.2 65.1506 37.7979ZM66.5939 37.7337C66.5939 36.0018 67.4919 34.7189 68.9672 34.7189C70.0256 34.7189 70.7954 35.4566 71.0199 36.3546C71.052 36.547 71.084 36.7715 71.084 36.964V38.311C71.084 38.5355 71.052 38.728 71.0199 38.9525C70.7312 40.0109 69.8653 40.6523 68.9352 40.6523C67.3636 40.6523 66.5939 39.3373 66.5939 37.7337ZM74.3234 37.7979C74.3234 40.1712 75.7666 41.8069 77.691 41.8069C78.9739 41.8069 79.9361 41.1334 80.353 40.2674H80.3851L80.4492 41.6145H81.7321C81.7 41.0693 81.668 40.2995 81.668 39.5939V30.0684H80.2568V34.783H80.2247C79.8398 34.1416 79.038 33.5963 77.8513 33.5963C75.927 33.5963 74.2913 35.2 74.3234 37.7979ZM75.7666 37.7337C75.7666 36.0018 76.6326 34.7189 78.1079 34.7189C79.1984 34.7189 79.9681 35.4566 80.1926 36.3546C80.2247 36.547 80.2568 36.7715 80.2568 36.964V38.311C80.2568 38.5355 80.2247 38.728 80.1926 38.9525C79.904 40.0109 79.038 40.6523 78.0758 40.6523C76.5364 40.6523 75.7666 39.3373 75.7666 37.7337ZM84.0413 41.6145H85.4525V33.7567H84.0413V41.6145ZM84.7149 32.4097C85.2922 32.4097 85.645 32.0248 85.645 31.5437C85.645 31.0305 85.2922 30.6457 84.7469 30.6457C84.2338 30.6457 83.8489 31.0626 83.8489 31.5437C83.8489 32.0248 84.2017 32.4097 84.7149 32.4097ZM87.8259 41.6145H89.2371V36.8998C89.2371 36.6432 89.3013 36.4187 89.3654 36.2263C89.622 35.4245 90.3276 34.751 91.2898 34.751C92.6368 34.751 93.1179 35.8094 93.1179 37.0923V41.6145H94.5291V36.9319C94.5291 34.2378 92.8292 33.5963 91.7708 33.5963C90.4559 33.5963 89.5578 34.334 89.1409 35.0717H89.1088L89.0447 33.7567H87.7618C87.8259 34.3982 87.8259 35.0717 87.8259 35.8735V41.6145ZM97.3194 43.2502L96.9666 44.3727C97.608 44.7576 98.6344 44.9821 99.5965 44.9821C100.591 44.9821 101.681 44.7576 102.451 44.052C103.221 43.3785 103.574 42.288 103.574 40.492V35.9056C103.574 34.9434 103.606 34.3019 103.638 33.7567H102.387L102.323 34.9434H102.291C101.938 34.3019 101.2 33.5963 99.8531 33.5963C98.025 33.5963 96.2931 35.1038 96.2931 37.7658C96.2931 39.9467 97.6722 41.5824 99.6286 41.5824C100.847 41.5824 101.713 41.0051 102.13 40.2674H102.162V41.1655C102.162 43.1219 101.104 43.8917 99.6286 43.8917C98.6664 43.8917 97.8646 43.5709 97.3194 43.2502ZM97.7363 37.6696C97.7363 35.8414 98.7306 34.6868 100.078 34.6868C101.136 34.6868 101.81 35.3924 102.066 36.2263C102.13 36.4187 102.162 36.6112 102.162 36.8678V38.2789C102.162 38.5035 102.13 38.7921 102.034 39.0487C101.745 39.9467 100.944 40.524 100.078 40.524C98.5382 40.524 97.7363 39.2091 97.7363 37.6696ZM110.277 41.6145H111.688V33.7567H110.277V41.6145ZM110.95 32.4097C111.528 32.4097 111.88 32.0248 111.848 31.5437C111.848 31.0305 111.528 30.6457 110.982 30.6457C110.469 30.6457 110.084 31.0626 110.084 31.5437C110.084 32.0248 110.437 32.4097 110.95 32.4097ZM114.061 41.6145H115.472V36.8998C115.472 36.6432 115.537 36.4187 115.601 36.2263C115.857 35.4245 116.563 34.751 117.525 34.751C118.84 34.751 119.353 35.8094 119.353 37.0923V41.6145H120.764V36.9319C120.764 34.2378 119.065 33.5963 117.974 33.5963C116.691 33.5963 115.761 34.334 115.376 35.0717H115.312L115.248 33.7567H113.997C114.029 34.3982 114.061 35.0717 114.061 35.8735V41.6145ZM123.074 41.6145H124.485V36.8998C124.485 36.6432 124.549 36.4187 124.613 36.2263C124.87 35.4245 125.575 34.751 126.538 34.751C127.885 34.751 128.366 35.8094 128.366 37.0923V41.6145H129.777V36.9319C129.777 34.2378 128.077 33.5963 127.019 33.5963C125.704 33.5963 124.774 34.334 124.389 35.0717H124.357L124.292 33.7567H123.01C123.042 34.3982 123.074 35.0717 123.074 35.8735V41.6145ZM131.541 37.7337C131.541 40.2674 133.209 41.8069 135.261 41.8069C137.089 41.8069 139.206 40.5882 139.206 37.7016C139.206 35.1679 137.667 33.5963 135.454 33.5963C133.337 33.5963 131.541 35.1038 131.541 37.7337ZM132.984 37.7337C132.984 36.3225 133.626 34.6868 135.357 34.6868C137.121 34.6868 137.763 36.3546 137.763 37.7016C137.763 39.3053 136.929 40.7485 135.357 40.7485C133.786 40.7485 132.984 39.2732 132.984 37.7337ZM142.927 41.6145H144.274L147.353 33.7567H145.877L144.338 38.1507C144.081 38.8883 143.857 39.5619 143.696 40.2033H143.664C143.44 39.5619 143.247 38.8883 142.991 38.1827L141.451 33.7567H139.944L142.927 41.6145ZM148.026 39.5619C148.026 40.6844 148.86 41.8069 150.432 41.8069C151.554 41.8069 152.42 41.2296 152.837 40.6202H152.869L152.997 41.6145H154.28C154.216 41.0693 154.184 40.3957 154.184 39.7222V36.8036C154.184 35.2 153.607 33.5963 151.201 33.5963C150.207 33.5963 149.277 33.8529 148.603 34.2699L148.924 35.2C149.501 34.8472 150.239 34.6227 150.977 34.6227C152.58 34.6227 152.773 35.8094 152.773 36.4508V36.6432C149.726 36.6112 148.026 37.6375 148.026 39.5619ZM149.469 39.3694C149.469 37.862 151.233 37.6054 152.805 37.6054V38.9845C152.805 39.1128 152.773 39.2732 152.741 39.4336C152.484 40.1071 151.875 40.7485 150.816 40.7485C150.079 40.7485 149.469 40.3316 149.469 39.3694ZM157.295 41.1976C157.648 41.5824 158.193 41.8069 158.835 41.8069C159.412 41.8069 159.829 41.7107 160.118 41.5824L160.053 40.492C159.861 40.5561 159.604 40.6202 159.219 40.6202C158.418 40.6202 158.161 40.0429 158.161 39.0808V34.8472H160.214V33.7567H158.161V31.4796L156.75 31.8644V33.7567H155.531V34.8472H156.75V39.1449C156.75 40.0429 156.91 40.7485 157.295 41.1976ZM161.817 41.6145H163.196V33.7567H161.817V41.6145ZM162.491 32.4097C163.068 32.4097 163.421 32.0248 163.389 31.5437C163.389 31.0305 163.068 30.6457 162.523 30.6457C162.01 30.6457 161.625 31.0626 161.625 31.5437C161.625 32.0248 161.946 32.4097 162.491 32.4097ZM165.025 37.7337C165.025 40.2674 166.692 41.8069 168.777 41.8069C170.573 41.8069 172.722 40.5882 172.722 37.7016C172.722 35.1679 171.15 33.5963 168.937 33.5963C166.821 33.5963 165.025 35.1038 165.025 37.7337ZM166.5 37.7337C166.5 36.3225 167.109 34.6868 168.873 34.6868C170.637 34.6868 171.279 36.3546 171.279 37.7016C171.279 39.3053 170.445 40.7485 168.873 40.7485C167.302 40.7485 166.5 39.2732 166.5 37.7337ZM174.518 41.6145H175.929V36.8998C175.929 36.6432 175.993 36.4187 176.058 36.2263C176.314 35.4245 177.02 34.751 177.982 34.751C179.297 34.751 179.81 35.8094 179.81 37.0923V41.6145H181.221V36.9319C181.221 34.2378 179.521 33.5963 178.463 33.5963C177.148 33.5963 176.218 34.334 175.833 35.0717H175.801L175.737 33.7567H174.454C174.486 34.3982 174.518 35.0717 174.518 35.8735V41.6145Z" fill="#373435"/>
<path fill-rule="evenodd" clip-rule="evenodd" d="M62.1358 18.3776H66.2411V3.72042H71.1802V0.288653H57.2607V3.72042H62.1358V18.3776ZM73.3612 18.3776H84.9073V15.01H77.4665V10.7443H84.1055V7.40877H77.4665V3.6242H84.4904V0.288653H73.3612V18.3776ZM86.8637 9.5897C86.8637 14.7213 90.071 18.6662 96.3251 18.6662C98.5381 18.6662 100.238 18.2172 100.976 17.8965L100.366 14.6572C99.5645 14.9779 98.1854 15.2345 96.9666 15.2345C93.3103 15.2345 91.1615 12.9573 91.1615 9.36519C91.1615 5.32405 93.6952 3.36762 96.9345 3.36762C98.3778 3.36762 99.5324 3.68835 100.334 4.04115L101.2 0.833887C100.495 0.416944 98.8589 0.0320726 96.7421 0.0320726C91.2577 0.0320726 86.8637 3.43177 86.8637 9.5897ZM103.67 18.3776H107.775V10.8085H114.51V18.3776H118.584V0.288653H114.51V7.2484H107.775V0.288653H103.67V18.3776ZM121.31 9.5897C121.31 14.7213 124.517 18.6662 130.771 18.6662C132.984 18.6662 134.652 18.2172 135.422 17.8965L134.812 14.6572C134.01 14.9779 132.631 15.2345 131.38 15.2345C127.724 15.2345 125.607 12.9573 125.607 9.36519C125.607 5.32405 128.141 3.36762 131.38 3.36762C132.824 3.36762 133.978 3.68835 134.78 4.04115L135.646 0.833887C134.941 0.416944 133.305 0.0320726 131.188 0.0320726C125.704 0.0320726 121.31 3.43177 121.31 9.5897ZM138.116 18.3776H142.157V11.2575H143.376C145.075 11.2895 145.845 11.8989 146.326 14.144C146.839 16.3891 147.288 17.8644 147.577 18.3776H151.779C151.426 17.672 150.849 15.2986 150.303 13.278C149.854 11.6103 149.149 10.3915 147.866 9.87836V9.81421C149.437 9.2369 151.073 7.66535 151.073 5.35612C151.073 3.68835 150.496 2.43752 149.405 1.57156C148.122 0.545234 146.23 0.12829 143.568 0.12829C141.387 0.12829 139.431 0.320726 138.116 0.513161V18.3776ZM142.157 8.3068V3.30348C142.478 3.2714 143.055 3.17519 144.017 3.17519C145.877 3.20726 147.032 4.07322 147.032 5.70892C147.032 7.28048 145.813 8.3068 143.76 8.3068H142.157ZM161.593 18.6662C166.468 18.6662 170.477 15.3948 170.477 9.30105C170.477 4.00907 167.398 0 161.946 0C156.622 0 153.062 3.84871 153.062 9.46141C153.062 14.8817 156.365 18.6662 161.593 18.6662ZM161.753 15.4269C158.963 15.4269 157.391 12.7328 157.391 9.39727C157.391 5.99757 158.931 3.20726 161.785 3.20726C164.8 3.20726 166.147 6.28623 166.147 9.36519C166.147 12.6366 164.672 15.4269 161.753 15.4269ZM173.171 18.3776H176.924V12.9573C176.924 9.97457 176.859 7.40877 176.731 5.0354H176.827C177.693 7.15219 178.912 9.46141 180.002 11.4178L183.883 18.3776H188.149V0.288653H184.396V5.51648C184.396 8.27473 184.493 10.7122 184.749 13.1177H184.685C183.851 11.065 182.793 8.81996 181.67 6.8956L177.95 0.288653H173.171V18.3776ZM191.645 10.4557C191.645 16.1967 194.307 18.6662 198.861 18.6662C203.64 18.6662 206.43 16.0684 206.43 10.4877V0.288653H202.357V10.7443C202.357 13.9195 201.17 15.4269 199.022 15.4269C196.969 15.4269 195.75 13.8554 195.75 10.7443V0.288653H191.645V10.4557ZM209.285 17.5437C210.279 18.0889 212.332 18.6662 214.384 18.6662C219.388 18.6662 221.697 16.0684 221.697 13.0215C221.697 10.4877 220.189 8.81996 217.014 7.63327C214.673 6.76731 213.647 6.22208 213.647 5.09954C213.647 4.20151 214.513 3.36762 216.277 3.36762C218.073 3.36762 219.356 3.91285 220.061 4.23358L220.959 0.930105C219.901 0.416944 218.425 0.0320726 216.341 0.0320726C212.075 0.0320726 209.477 2.37337 209.477 5.45234C209.477 8.11436 211.466 9.71799 214.513 10.8085C216.661 11.5461 217.527 12.2197 217.527 13.3422C217.527 14.4968 216.533 15.2665 214.641 15.2665C212.877 15.2665 211.177 14.7213 210.087 14.1761L209.285 17.5437Z" fill="#373435"/>
<path fill-rule="evenodd" clip-rule="evenodd" d="M46.4587 31.9465C45.7852 38.9062 41.744 47.9828 32.6675 44.0058C29.3961 41.921 28.0811 38.361 27.7604 33.7105C27.1831 24.7622 28.4339 16.3913 29.364 7.47508H18.0424L17.6575 15.1725C16.8878 22.453 16.6312 36.8215 12.4618 42.8511C11.692 44.134 10.3129 45 8.70929 45C6.27177 45 4.31535 43.0115 4.31535 40.6061C4.31535 39.2911 5.14923 37.7516 5.79068 36.597C7.77918 33.1973 9.31867 31.9465 10.6657 27.8732C12.8787 21.3625 12.8787 14.4028 13.3598 7.47508H10.2167C6.72079 7.79581 4.44364 10.2012 2.64757 12.9595C2.32685 13.5047 2.07026 13.8575 1.36467 13.8575C0.242128 13.8575 -0.238961 12.8312 0.113837 11.869C2.42306 5.45451 5.56618 -0.126121 13.3598 0.00216916H46.138C46.4266 0.643621 46.5549 1.34922 46.5549 2.05481C46.5549 5.00549 44.2136 7.37886 41.263 7.47508C36.4841 7.50715 34.9126 7.85995 34.3032 14.1782C33.5976 20.9456 33.0844 29.8297 34.3032 32.8445C34.9767 34.8009 36.8369 36.2121 38.9858 36.2121C41.5837 36.2121 43.7005 34.2236 43.9571 31.722C44.0533 31.1446 44.5664 30.6956 45.2079 30.6956C45.8814 30.6956 46.4587 31.2729 46.4587 31.9465Z" fill="#5AC6C6"/>
</svg>
